<svg id="Слой_1" data-name="Слой 1" xmlns="http://www.w3.org/2000/svg" viewBox="0 0 255.37 255.76"><defs><style>.cls-1{fill:#eb611c;}</style></defs><path class="cls-1" d="M213,418.66c-4.72,0-9.41-.2-14-.59a3,3,0,0,1,.51-6,162.18,162.18,0,0,0,19.18.47,3,3,0,0,1,3.2,2.75,3,3,0,0,1-2.78,3.23h-.14Q216,418.66,213,418.66Zm25.28-3.08a3,3,0,0,1-.68-5.92,120.83,120.83,0,0,0,18.23-5.82,3,3,0,0,1,2.27,5.55A126.72,126.72,0,0,1,239,415.5,2.71,2.71,0,0,1,238.32,415.58Zm-58.36-.5a3.14,3.14,0,0,1-.67-.08,131.65,131.65,0,0,1-19.17-5.92,3,3,0,0,1,2.21-5.58,126.11,126.11,0,0,0,18.29,5.65,3,3,0,0,1-.66,5.93Zm94.54-14.29a3,3,0,0,1-1.56-5.57A121.69,121.69,0,0,0,288.46,384a3,3,0,0,1,3.88,4.58,129.27,129.27,0,0,1-16.28,11.74A3,3,0,0,1,274.5,400.79Zm-130.85-.17a3,3,0,0,1-1.54-.43,119,119,0,0,1-16.3-11.79,3,3,0,0,1,3.92-4.54,113.8,113.8,0,0,0,15.47,11.19,3,3,0,0,1-1.55,5.57Zm160.68-25.11a3,3,0,0,1-2.28-5,122.88,122.88,0,0,0,11.34-15.43,3,3,0,0,1,5.1,3.16,129.75,129.75,0,0,1-11.89,16.19A3,3,0,0,1,304.33,375.51ZM114,375.12a3,3,0,0,1-2.31-1.09,124.48,124.48,0,0,1-11.51-16.48,3,3,0,1,1,5.19-3,118.17,118.17,0,0,0,10.94,15.69,3,3,0,0,1-2.31,4.91Zm210.89-32.85a3,3,0,0,1-2.76-4.16,122.87,122.87,0,0,0,6-18.18,3,3,0,1,1,5.82,1.43,126.1,126.1,0,0,1-6.3,19.08A3,3,0,0,1,324.93,342.27Zm-230.64-.9a3,3,0,0,1-2.8-1.91,133.83,133.83,0,0,1-5.86-19.19A3,3,0,1,1,91.48,319a127.72,127.72,0,0,0,5.6,18.33,3,3,0,0,1-2.79,4.09Zm240-37.08H334a3,3,0,0,1-2.75-3.24c.27-3.31.41-6.68.41-10,0-3-.11-6.1-.34-9.13l0-.29a3,3,0,1,1,6-.43l0,.25c.23,3.2.35,6.43.35,9.6,0,3.5-.14,7-.43,10.5A3,3,0,0,1,334.24,304.29ZM85.65,303.21a3,3,0,0,1-3-2.78c-.25-3.39-.38-6.83-.38-10.23s.12-6.58.35-9.83a3,3,0,0,1,6,.44c-.23,3.1-.34,6.26-.34,9.39s.12,6.54.37,9.78a3,3,0,0,1-2.77,3.22ZM331.28,265a3,3,0,0,1-2.92-2.31,121.19,121.19,0,0,0-5.85-18.22,3,3,0,0,1,5.55-2.28,127.86,127.86,0,0,1,6.14,19.12,3,3,0,0,1-2.23,3.61A2.71,2.71,0,0,1,331.28,265ZM88.5,264.19a3,3,0,0,1-2.93-3.67,129.17,129.17,0,0,1,5.94-19.18,3,3,0,1,1,5.57,2.22,121.89,121.89,0,0,0-5.65,18.29A3,3,0,0,1,88.5,264.19Zm227.93-35.33a3,3,0,0,1-2.57-1.44,121.44,121.44,0,0,0-11.22-15.5,3,3,0,0,1,4.57-3.89A128.47,128.47,0,0,1,319,224.3a3,3,0,0,1-2.56,4.56Zm-213.45-1a3,3,0,0,1-1.54-.43,3,3,0,0,1-1-4.12A119.41,119.41,0,0,1,112.18,207a3,3,0,0,1,4.55,3.91,114.16,114.16,0,0,0-11.18,15.49A3,3,0,0,1,103,227.88Zm188.11-28.8a3,3,0,0,1-1.95-.73,123.78,123.78,0,0,0-15.45-11.3,3,3,0,1,1,3.15-5.1,129.66,129.66,0,0,1,16.21,11.85,3,3,0,0,1-2,5.28Zm-162.65-.84a3,3,0,0,1-1.91-5.31A122.42,122.42,0,0,1,143,181.44a3,3,0,0,1,3,5.18,117.63,117.63,0,0,0-15.68,10.93A3,3,0,0,1,128.44,198.24Zm129.38-19.71a3,3,0,0,1-1.16-.24,121.3,121.3,0,0,0-18.19-6,3,3,0,0,1,1.42-5.83A128.38,128.38,0,0,1,259,172.76a3,3,0,0,1-1.16,5.77Zm-95.64,0a3,3,0,0,1-1.1-5.79,145.62,145.62,0,0,1,19.11-6,3,3,0,1,1,1.4,5.83,139.09,139.09,0,0,0-18.32,5.74A3,3,0,0,1,162.18,178.51Zm57.64-9.21h-.24a123.93,123.93,0,0,0-18.88-.06h-.14a3,3,0,1,1-.7-6l.34,0a129.06,129.06,0,0,1,19.86.06,3,3,0,0,1-.24,6Z" transform="translate(-82.28 -162.89)"/></svg>