<svg width="27" height="25" viewBox="0 0 27 25" fill="none" xmlns="http://www.w3.org/2000/svg">
<path opacity="0.3" d="M13.0828 16.0452C13.9748 16.0452 14.8302 15.6879 15.4609 15.0519C16.0917 14.4159 16.446 13.5532 16.446 12.6537C16.446 12.5544 16.4415 12.456 16.4331 12.3588L12.7903 16.0322C12.8867 16.0407 12.984 16.0452 13.0828 16.0452ZM24.2151 2.1631L22.9322 0.870702C22.8872 0.825305 22.8261 0.799805 22.7624 0.799805C22.6987 0.799805 22.6377 0.825305 22.5926 0.870702L19.3099 4.18195C17.4989 3.24869 15.4633 2.78205 13.2029 2.78205C7.43135 2.78205 3.12521 5.8132 0.284486 11.8755C0.170303 12.1193 0.111084 12.3856 0.111084 12.6552C0.111084 12.9249 0.170303 13.1912 0.284486 13.435C1.41958 15.846 2.78639 17.7784 4.38492 19.2323L1.20817 22.4346C1.16316 22.48 1.13787 22.5416 1.13787 22.6058C1.13787 22.67 1.16316 22.7316 1.20817 22.777L2.4901 24.0697C2.53515 24.1151 2.59623 24.1406 2.65992 24.1406C2.7236 24.1406 2.78468 24.1151 2.82973 24.0697L24.2151 2.50589C24.2374 2.48339 24.2551 2.45667 24.2672 2.42726C24.2793 2.39785 24.2855 2.36633 24.2855 2.3345C24.2855 2.30266 24.2793 2.27114 24.2672 2.24173C24.2551 2.21232 24.2374 2.1856 24.2151 2.1631ZM7.7977 12.6537C7.79762 11.7332 8.03398 10.8283 8.48376 10.0273C8.93355 9.22627 9.58141 8.55637 10.3642 8.08287C11.1471 7.60937 12.0382 7.34841 12.9508 7.32541C13.8633 7.30242 14.7663 7.51818 15.5716 7.95166L14.1116 9.42393C13.5228 9.23382 12.8934 9.21092 12.2925 9.35776C11.6917 9.50459 11.1425 9.81549 10.7054 10.2563C10.2682 10.6972 9.95989 11.2509 9.81428 11.8569C9.66866 12.4628 9.69137 13.0974 9.8799 13.6912L8.4199 15.1634C8.01019 14.3915 7.79643 13.5293 7.7977 12.6537Z" fill="#2A2A2A"/>
<path opacity="0.3" d="M26.6093 12.0224C25.5298 9.82012 24.2451 8.02432 22.755 6.63501L18.3349 10.9173C18.7075 11.8609 18.7901 12.8887 18.5727 13.8768C18.3553 14.8648 17.8472 15.7707 17.1099 16.4851C16.3725 17.1994 15.4374 17.6916 14.4175 17.9022C13.3976 18.1128 12.3366 18.0328 11.3626 17.6719L7.61353 21.3039C9.35284 22.0836 11.2874 22.4734 13.4172 22.4734C19.311 22.4734 23.7083 19.4997 26.6093 13.5523C26.7259 13.3132 26.7864 13.0519 26.7864 12.7874C26.7864 12.5229 26.7259 12.2616 26.6093 12.0224Z" fill="#2A2A2A"/>
</svg>
