<svg width="24" height="24" viewBox="0 0 24 24" fill="none" xmlns="http://www.w3.org/2000/svg">
<path d="M13.35 5.26005L14.62 7.85005C14.7278 8.06811 14.887 8.25669 15.0838 8.39954C15.2807 8.54239 15.5093 8.63523 15.75 8.67005L18.6 9.08005C18.8772 9.1203 19.1376 9.23734 19.3517 9.41793C19.5658 9.59852 19.725 9.83544 19.8114 10.1019C19.8978 10.3683 19.9078 10.6536 19.8404 10.9254C19.773 11.1973 19.6309 11.4448 19.43 11.6401L17.37 13.6401C17.1904 13.8127 17.0569 14.0277 16.9817 14.2653C16.9066 14.5028 16.8923 14.7555 16.94 15.0001L17.42 17.8401C17.4662 18.115 17.4349 18.3973 17.3295 18.6554C17.2242 18.9135 17.049 19.1371 16.8237 19.3012C16.5983 19.4653 16.3317 19.5633 16.0538 19.5843C15.7758 19.6053 15.4975 19.5484 15.25 19.4201L12.7 18.0601C12.484 17.947 12.2438 17.888 12 17.888C11.7562 17.888 11.5161 17.947 11.3 18.0601L8.75004 19.4001C8.5026 19.5284 8.22428 19.5853 7.94632 19.5643C7.66836 19.5433 7.40174 19.4453 7.17639 19.2812C6.95104 19.1171 6.77587 18.8935 6.67053 18.6354C6.5652 18.3773 6.53386 18.095 6.58004 17.8201L7.06004 15.0001C7.1026 14.7601 7.08565 14.5134 7.01068 14.2815C6.93571 14.0496 6.80501 13.8397 6.63004 13.6701L4.57004 11.6701C4.36019 11.4762 4.21006 11.2264 4.13732 10.9501C4.06458 10.6739 4.07226 10.3825 4.15945 10.1105C4.24663 9.83841 4.40971 9.5969 4.62948 9.41436C4.84926 9.23181 5.11659 9.11583 5.40004 9.08005L8.25004 8.67005C8.49076 8.63523 8.7194 8.54239 8.91626 8.39954C9.11312 8.25669 9.27228 8.06811 9.38004 7.85005L10.65 5.26005C10.7756 5.00954 10.9683 4.7989 11.2067 4.65169C11.4452 4.50448 11.7198 4.42651 12 4.42651C12.2802 4.42651 12.5549 4.50448 12.7933 4.65169C13.0318 4.7989 13.2245 5.00954 13.35 5.26005Z" fill="#FFC700" stroke="#FFC700" stroke-width="1.5" stroke-miterlimit="10" stroke-linecap="round"/>
</svg>
